<?xml version="1.0" encoding="utf-8"?>
<!-- Generator: Adobe Illustrator 22.1.0, SVG Export Plug-In . SVG Version: 6.00 Build 0)  -->
<svg version="1.1" id="Capa_1" xmlns="http://www.w3.org/2000/svg" xmlns:xlink="http://www.w3.org/1999/xlink" x="0px" y="0px"
	 viewBox="0 0 612 612" style="enable-background:new 0 0 612 612;" xml:space="preserve">
<style type="text/css">
	.st0{fill:#FFFFFF;}
</style>
<g>
	<rect x="163" y="147" class="st0" width="286" height="318"/>
	<path d="M306,0C137,0,0,137,0,306s137,306,306,306c169,0,306-137,306-306S475,0,306,0z M431,316.2c-7.5,7.5-19.6,7.5-27,0
		l-78.8-78.8v202.5c0,10.6-8.6,19.1-19.1,19.1s-19.1-8.6-19.1-19.1V237.4l-78.8,78.8c-7.5,7.5-19.6,7.5-27,0c-7.5-7.5-7.5-19.6,0-27
		L289.2,181c4.6-4.6,10.9-6,16.8-5c5.9-1.1,12.2,0.4,16.8,5L431,289.2C438.5,296.7,438.5,308.8,431,316.2z"/>
</g>
</svg>
