<svg width="666" height="161" viewBox="0 0 666 161" fill="none" xmlns="http://www.w3.org/2000/svg">
<path d="M494.58 151.155V133.334H485.813L485.704 136.999C485.63 138.556 485.521 140.029 485.375 141.418C485.253 142.807 485.058 144.077 484.79 145.227C484.522 146.352 484.169 147.311 483.731 148.101C483.317 148.892 482.793 149.454 482.16 149.79L475.84 148.999C476.717 149.023 477.435 148.724 477.996 148.101C478.58 147.478 479.043 146.604 479.384 145.478C479.725 144.328 479.968 142.987 480.114 141.454C480.285 139.921 480.407 138.256 480.48 136.46L480.772 128.591H500.425V151.155H494.58ZM475 158.952L475.037 148.999H504.005V158.952H498.526V153.742H480.48V158.952H475Z" fill="white"/>
<path d="M516.543 154.03C514.448 154.03 512.585 153.598 510.953 152.736C509.346 151.874 508.067 150.7 507.118 149.215C506.192 147.706 505.729 145.993 505.729 144.077C505.729 142.137 506.192 140.424 507.118 138.939C508.067 137.43 509.346 136.256 510.953 135.418C512.585 134.555 514.448 134.124 516.543 134.124C518.613 134.124 520.464 134.555 522.095 135.418C523.727 136.256 525.006 137.418 525.931 138.903C526.856 140.388 527.319 142.113 527.319 144.077C527.319 145.993 526.856 147.706 525.931 149.215C525.006 150.7 523.727 151.874 522.095 152.736C520.464 153.598 518.613 154.03 516.543 154.03ZM516.543 149.43C517.492 149.43 518.345 149.215 519.1 148.784C519.855 148.353 520.451 147.742 520.89 146.951C521.328 146.137 521.547 145.179 521.547 144.077C521.547 142.951 521.328 141.993 520.89 141.202C520.451 140.412 519.855 139.801 519.1 139.37C518.345 138.939 517.492 138.723 516.543 138.723C515.593 138.723 514.74 138.939 513.985 139.37C513.23 139.801 512.622 140.412 512.159 141.202C511.721 141.993 511.501 142.951 511.501 144.077C511.501 145.179 511.721 146.137 512.159 146.951C512.622 147.742 513.23 148.353 513.985 148.784C514.74 149.215 515.593 149.43 516.543 149.43Z" fill="white"/>
<path d="M540.591 154.03C538.472 154.03 536.584 153.61 534.928 152.772C533.272 151.91 531.969 150.724 531.02 149.215C530.094 147.706 529.631 145.993 529.631 144.077C529.631 142.137 530.094 140.424 531.02 138.939C531.969 137.43 533.272 136.256 534.928 135.418C536.584 134.555 538.472 134.124 540.591 134.124C542.661 134.124 544.463 134.555 545.997 135.418C547.532 136.256 548.664 137.466 549.395 139.047L544.974 141.382C544.463 140.472 543.818 139.801 543.038 139.37C542.283 138.939 541.455 138.723 540.554 138.723C539.58 138.723 538.703 138.939 537.924 139.37C537.145 139.801 536.524 140.412 536.061 141.202C535.623 141.993 535.403 142.951 535.403 144.077C535.403 145.203 535.623 146.161 536.061 146.951C536.524 147.742 537.145 148.353 537.924 148.784C538.703 149.215 539.58 149.43 540.554 149.43C541.455 149.43 542.283 149.227 543.038 148.82C543.818 148.388 544.463 147.706 544.974 146.772L549.395 149.143C548.664 150.7 547.532 151.91 545.997 152.772C544.463 153.61 542.661 154.03 540.591 154.03Z" fill="white"/>
<path d="M557.023 153.742V137.717L558.302 139.011H550.374V134.412H569.334V139.011H561.407L562.685 137.717V153.742H557.023Z" fill="white"/>
<path d="M575.145 161C574.122 161 573.112 160.844 572.113 160.533C571.115 160.222 570.299 159.79 569.666 159.239L571.748 155.251C572.186 155.634 572.686 155.934 573.246 156.149C573.83 156.365 574.403 156.473 574.963 156.473C575.766 156.473 576.4 156.281 576.862 155.898C577.349 155.539 577.788 154.928 578.177 154.065L579.2 151.694L579.639 151.083L586.689 134.412H592.169L583.292 154.928C582.659 156.485 581.928 157.706 581.1 158.593C580.296 159.479 579.395 160.102 578.397 160.461C577.422 160.82 576.339 161 575.145 161ZM578.506 154.497L569.739 134.412H575.62L582.415 150.58L578.506 154.497Z" fill="white"/>
<path d="M594.918 153.742V134.412H614.462V153.742H608.763V137.753L610.042 139.011H599.302L600.58 137.753V153.742H594.918Z" fill="white"/>
<path d="M619.926 153.742V134.412H625.588V141.957H634.136V134.412H639.835V153.742H634.136V146.52H625.588V153.742H619.926Z" fill="white"/>
<path d="M654.496 154.03C652.402 154.03 650.539 153.598 648.907 152.736C647.3 151.874 646.021 150.7 645.071 149.215C644.146 147.706 643.683 145.993 643.683 144.077C643.683 142.137 644.146 140.424 645.071 138.939C646.021 137.43 647.3 136.256 648.907 135.418C650.539 134.555 652.402 134.124 654.496 134.124C656.566 134.124 658.417 134.555 660.049 135.418C661.681 136.256 662.959 137.418 663.885 138.903C664.81 140.388 665.273 142.113 665.273 144.077C665.273 145.993 664.81 147.706 663.885 149.215C662.959 150.7 661.681 151.874 660.049 152.736C658.417 153.598 656.566 154.03 654.496 154.03ZM654.496 149.43C655.446 149.43 656.298 149.215 657.053 148.784C657.808 148.353 658.405 147.742 658.843 146.951C659.282 146.137 659.501 145.179 659.501 144.077C659.501 142.951 659.282 141.993 658.843 141.202C658.405 140.412 657.808 139.801 657.053 139.37C656.298 138.939 655.446 138.723 654.496 138.723C653.546 138.723 652.694 138.939 651.939 139.37C651.184 139.801 650.575 140.412 650.112 141.202C649.674 141.993 649.455 142.951 649.455 144.077C649.455 145.179 649.674 146.137 650.112 146.951C650.575 147.742 651.184 148.353 651.939 148.784C652.694 149.215 653.546 149.43 654.496 149.43Z" fill="white"/>
<path d="M598.676 102.455C574.668 102.455 550.631 102.455 526.623 102.455C526.033 102.188 525.385 102.277 524.736 102.158C521.432 101.537 519.102 99.8492 518.218 96.4742C518.1 95.9709 518.1 95.438 517.864 94.9643C517.893 73.885 517.893 52.8056 517.893 31.7263C518.011 31.6967 517.982 31.6079 518.011 31.5191C518.1 30.5717 518.218 29.6243 518.424 28.7065C518.985 26.1012 519.928 23.6439 521.757 21.6307C523.468 19.7952 525.532 18.8182 528.098 18.8182C535.766 18.8478 543.435 18.8182 551.103 18.8182C551.28 18.8182 551.457 18.8182 551.634 18.8182C551.516 18.9662 551.398 19.0254 551.28 19.0846C545.794 21.5715 540.279 24.0584 534.793 26.5749C534.498 26.7229 534.203 26.7821 533.879 26.7821C532.08 26.7821 530.251 26.8117 528.452 26.7525C527.803 26.7229 527.42 27.019 527.184 27.5223C526.505 28.8545 526.269 30.3052 526.505 31.7855C526.8 33.7099 527.479 34.2724 529.425 34.2724C552.165 34.2724 574.934 34.2724 597.673 34.2724C598.41 34.2724 599.148 34.2724 599.885 34.45C603.926 35.3382 606.668 38.7429 606.698 42.8877C606.727 45.9963 606.698 49.1345 606.727 52.2431C606.727 52.7464 606.639 52.8944 606.079 52.8944C594.665 52.8648 583.251 52.8648 571.837 52.8944C566.764 52.8944 562.812 56.8616 562.782 61.9242C562.753 65.2105 562.782 68.4671 562.782 71.7533C562.782 72.6711 562.9 73.5297 563.166 74.4178C564.375 78.2962 567.826 80.7831 571.984 80.7831C583.369 80.7831 594.724 80.7831 606.108 80.7831C606.403 80.7831 606.668 80.7239 606.668 81.1976C606.639 85.4312 606.698 89.6944 606.639 93.9281C606.609 97.9841 603.926 101.27 600.032 102.218C599.59 102.307 599.118 102.277 598.676 102.455ZM595.343 41.7923C594.252 41.7923 593.16 41.7923 592.069 41.7923C591.273 41.7923 590.742 42.266 590.712 42.9469C590.683 43.6278 591.214 44.1607 592.01 44.1607C594.222 44.1903 596.464 44.1903 598.676 44.1607C599.472 44.1607 599.973 43.6278 599.944 42.9173C599.914 42.2364 599.413 41.7923 598.617 41.7923C597.555 41.7627 596.434 41.7923 595.343 41.7923ZM595.372 94.6386C594.281 94.6386 593.16 94.6386 592.069 94.6386C591.273 94.6386 590.742 95.1419 590.742 95.8228C590.742 96.5038 591.243 97.0071 592.01 97.0071C594.222 97.0367 596.464 97.0367 598.676 97.0071C599.502 97.0071 599.973 96.5038 599.973 95.7932C599.973 95.0827 599.443 94.6386 598.617 94.6386C597.525 94.6386 596.464 94.6386 595.372 94.6386ZM582.779 41.7923C581.688 41.7923 580.567 41.7923 579.475 41.7923C578.679 41.7923 578.148 42.266 578.148 42.9469C578.148 43.6278 578.62 44.1311 579.387 44.1607C581.629 44.1903 583.87 44.1903 586.112 44.1607C586.878 44.1607 587.38 43.6278 587.38 42.9765C587.38 42.2956 586.849 41.7923 586.053 41.7923C584.961 41.7627 583.87 41.7923 582.779 41.7923ZM582.749 94.6386C581.658 94.6386 580.567 94.6386 579.505 94.6386C578.65 94.6386 578.148 95.0827 578.119 95.8228C578.119 96.5334 578.62 97.0071 579.446 97.0071C581.658 97.0367 583.87 97.0367 586.082 97.0071C586.878 97.0071 587.409 96.4742 587.38 95.7932C587.35 95.0827 586.819 94.6386 586.023 94.6386C584.932 94.6386 583.841 94.6386 582.749 94.6386ZM557.945 41.7923C556.884 41.7923 555.792 41.7923 554.731 41.7923C553.875 41.7923 553.344 42.2364 553.315 42.9469C553.315 43.6574 553.846 44.1607 554.672 44.1607C556.854 44.1607 559.037 44.1607 561.19 44.1607C562.045 44.1607 562.546 43.6574 562.517 42.9469C562.487 42.2364 561.986 41.7923 561.16 41.7923C560.128 41.7627 559.037 41.7923 557.945 41.7923ZM557.975 94.6386C556.884 94.6386 555.763 94.6386 554.672 94.6386C553.875 94.6386 553.344 95.1419 553.344 95.8228C553.344 96.5038 553.846 97.0071 554.613 97.0071C556.854 97.0367 559.066 97.0367 561.308 97.0071C562.104 97.0071 562.605 96.4742 562.576 95.7636C562.546 95.0827 562.045 94.6386 561.249 94.6386C560.157 94.6386 559.066 94.6386 557.975 94.6386ZM531.844 44.1607C533.023 44.1607 534.203 44.1607 535.353 44.1311C536.032 44.1015 536.504 43.5686 536.504 42.9469C536.504 42.2956 536.002 41.7923 535.324 41.7923C533.023 41.7923 530.723 41.7923 528.452 41.7923C527.833 41.7923 527.39 42.2364 527.272 42.7989C527.184 43.3022 527.508 43.8351 527.98 44.0423C528.216 44.1607 528.481 44.1607 528.747 44.1607C529.779 44.1607 530.811 44.1607 531.844 44.1607ZM544.496 44.1607C545.617 44.1607 546.738 44.1903 547.859 44.1607C548.625 44.1311 549.127 43.6278 549.097 42.9469C549.068 42.266 548.566 41.7923 547.8 41.7923C547.033 41.7923 546.295 41.7923 545.529 41.7923C544.054 41.7923 542.579 41.7923 541.105 41.7923C540.574 41.7923 540.161 42.0291 539.954 42.5324C539.777 42.9765 539.866 43.391 540.19 43.7759C540.485 44.1015 540.869 44.1607 541.282 44.1607C542.373 44.1607 543.435 44.1607 544.496 44.1607ZM570.539 41.7923C569.448 41.7923 568.356 41.7923 567.295 41.7923C566.498 41.7923 565.968 42.266 565.938 42.9469C565.938 43.5982 566.439 44.1311 567.206 44.1607C569.448 44.1903 571.689 44.1903 573.931 44.1607C574.698 44.1607 575.199 43.6278 575.199 42.9765C575.199 42.2956 574.668 41.7923 573.872 41.7923C572.751 41.7627 571.63 41.7923 570.539 41.7923ZM531.932 94.6386C530.841 94.6386 529.75 94.6386 528.688 94.6386C527.833 94.6386 527.302 95.1123 527.302 95.8228C527.302 96.5038 527.833 97.0071 528.629 97.0071C530.841 97.0071 533.053 97.0367 535.265 97.0071C536.061 97.0071 536.592 96.4742 536.563 95.7932C536.563 95.0827 536.032 94.6386 535.206 94.6386C534.085 94.6386 533.023 94.6386 531.932 94.6386ZM544.467 97.0367C545.617 97.0367 546.738 97.0367 547.888 97.0367C547.947 97.0367 548.006 97.0367 548.036 97.0071C548.714 96.9183 549.127 96.4446 549.097 95.7932C549.068 95.1715 548.625 94.6386 547.947 94.6386C545.647 94.609 543.317 94.609 541.016 94.6386C540.426 94.6386 539.954 95.0827 539.866 95.6156C539.777 96.1781 540.072 96.711 540.544 96.9183C540.78 97.0071 541.046 97.0367 541.311 97.0367C542.402 97.0367 543.435 97.0367 544.467 97.0367ZM570.568 94.6386C569.477 94.6386 568.386 94.6386 567.324 94.6386C566.528 94.6386 565.997 95.0827 565.968 95.7932C565.938 96.4742 566.498 97.0071 567.324 97.0071C569.507 97.0071 571.689 97.0071 573.901 97.0071C574.698 97.0071 575.228 96.5038 575.228 95.8228C575.228 95.1123 574.698 94.6386 573.872 94.6386C572.722 94.6386 571.63 94.6386 570.568 94.6386ZM526.417 89.724C526.417 88.6286 526.417 87.5036 526.417 86.4082C526.417 85.6088 525.945 85.0759 525.267 85.0759C524.588 85.0759 524.087 85.6088 524.087 86.4082C524.087 88.599 524.087 90.8195 524.087 93.0103C524.087 93.8392 524.559 94.3425 525.237 94.3425C525.945 94.3425 526.417 93.8096 526.417 93.0103C526.446 91.8853 526.417 90.7899 526.417 89.724ZM524.087 50.8516C524.087 51.9471 524.087 53.0721 524.087 54.1675C524.087 54.9965 524.559 55.4998 525.237 55.4998C525.945 55.4998 526.417 54.9668 526.417 54.1675C526.417 51.9767 526.417 49.7562 526.417 47.5654C526.417 46.766 525.945 46.2035 525.267 46.2035C524.588 46.2035 524.087 46.7364 524.087 47.5358C524.087 48.6608 524.087 49.7562 524.087 50.8516ZM524.087 63.4933C524.087 64.5887 524.087 65.7137 524.087 66.8092C524.087 67.6085 524.559 68.1414 525.237 68.1414C525.915 68.1414 526.417 67.6085 526.417 66.8092C526.417 64.6183 526.417 62.3979 526.417 60.2071C526.417 59.3781 525.945 58.8748 525.237 58.8748C524.529 58.8748 524.087 59.3781 524.057 60.2071C524.087 61.3025 524.087 62.3979 524.087 63.4933ZM526.417 76.9935C526.417 75.8981 526.417 74.8027 526.417 73.7073C526.417 72.908 525.945 72.375 525.237 72.4047C524.559 72.4047 524.087 72.908 524.087 73.7073C524.087 75.9277 524.087 78.1482 524.087 80.3686C524.087 81.168 524.559 81.7009 525.267 81.6713C525.945 81.6713 526.417 81.168 526.417 80.3686C526.446 79.2436 526.417 78.1186 526.417 76.9935Z" fill="white"/>
<path d="M589.511 56.4893C583.481 56.4893 577.451 56.5514 571.421 56.4583C568.302 56.4273 565.896 58.8466 565.956 62.1344C566.015 65.3291 565.956 68.5238 565.956 71.7186C565.956 72.2148 565.985 72.7111 566.104 73.2074C566.669 75.7507 568.688 77.3636 571.273 77.3636C583.6 77.3636 595.897 77.3636 608.224 77.3636C608.729 77.3636 608.818 77.1775 608.818 76.7123C608.818 70.1677 608.789 63.6542 608.818 57.1097C608.818 56.5824 608.729 56.4273 608.194 56.4583C601.986 56.4893 595.749 56.4893 589.511 56.4893Z" fill="#FDFDFD"/>
<path d="M622.409 47.1761C618.467 49.214 614.526 51.2803 610.614 53.3182C610.434 53.2333 610.524 53.0917 610.524 52.9785C610.494 51.0821 610.494 49.1574 610.464 47.261C610.464 46.9497 610.584 46.8081 610.855 46.6949C611.998 46.1288 613.112 45.5344 614.255 44.9967C614.616 44.8268 614.676 44.6853 614.496 44.3174C609.591 33.9013 604.686 23.5136 599.812 13.0975C599.451 12.305 599.06 11.5408 598.729 10.7483C598.578 10.4086 598.458 10.3803 598.127 10.5218C593.734 12.2201 589.341 13.8901 584.947 15.5883C570.775 21.0228 556.633 26.4289 542.461 31.8634C542.1 32.0049 541.738 32.0615 541.377 32.0615C537.135 31.9766 532.892 31.92 528.649 31.8351C528.559 31.8351 528.439 31.8351 528.318 31.7502C529.372 31.3256 530.395 30.9293 531.448 30.5048C548.509 23.7966 565.63 17.0885 582.781 10.3803C588.889 8.00273 595.028 5.62516 601.106 3.21928C601.557 3.04945 601.707 3.13436 601.888 3.53063C608.658 17.9093 615.428 32.3163 622.199 46.6949C622.259 46.8364 622.289 46.978 622.409 47.0912C622.409 47.0912 622.409 47.1478 622.409 47.1761Z" fill="white"/>
<path d="M589.481 56.4557C595.719 56.4557 601.957 56.4557 608.194 56.4557C608.729 56.4557 608.818 56.6108 608.818 57.1071C608.789 63.6525 608.789 70.1668 608.818 76.7122C608.818 77.1775 608.759 77.3636 608.224 77.3636C595.897 77.3326 583.6 77.3636 571.273 77.3636C568.659 77.3636 566.669 75.7505 566.104 73.2068C565.985 72.7105 565.956 72.2142 565.956 71.7179C565.956 68.5227 566.015 65.3276 565.956 62.1325C565.896 58.8443 568.302 56.3936 571.421 56.4557C577.421 56.5177 583.451 56.4557 589.481 56.4557Z" fill="white"/>
<path d="M0 153.967V128.591H20.621V133.267H5.87607V138.488H12.9565C16.0467 138.488 18.3946 139.128 20.0005 140.409C21.6307 141.69 22.4458 143.551 22.4458 145.992C22.4458 148.505 21.5456 150.463 19.745 151.865C17.9445 153.266 15.4019 153.967 12.1171 153.967H0ZM5.87607 149.617H11.7886C13.2972 149.617 14.4529 149.327 15.2559 148.747C16.0588 148.143 16.4603 147.273 16.4603 146.137C16.4603 143.913 14.9031 142.802 11.7886 142.802H5.87607V149.617Z" fill="white"/>
<path d="M46.7268 153.967V134.464H52.3839V153.967H46.7268ZM36.8361 140.699C39.4152 140.723 41.3496 141.303 42.6391 142.439C43.953 143.551 44.61 145.134 44.61 147.188C44.61 149.339 43.8679 151.019 42.3836 152.227C40.8994 153.411 38.7947 154.003 36.0696 154.003L26.5073 153.967V134.464H32.1644V140.699H36.8361ZM35.5586 149.979C36.6536 150.004 37.493 149.774 38.077 149.291C38.6609 148.807 38.9529 148.082 38.9529 147.116C38.9529 146.149 38.6609 145.46 38.077 145.049C37.493 144.614 36.6536 144.385 35.5586 144.36L32.1644 144.324V149.979H35.5586Z" fill="white"/>
<path d="M67.2155 154.257C65.0987 154.257 63.213 153.834 61.5584 152.988C59.9039 152.118 58.6021 150.922 57.6532 149.399C56.7286 147.877 56.2663 146.149 56.2663 144.215C56.2663 142.258 56.7286 140.53 57.6532 139.031C58.6021 137.509 59.9039 136.325 61.5584 135.479C63.213 134.609 65.0987 134.174 67.2155 134.174C69.2837 134.174 71.0842 134.609 72.6171 135.479C74.15 136.325 75.2814 137.545 76.0114 139.14L71.5952 141.497C71.0842 140.578 70.4394 139.901 69.6608 139.466C68.9065 139.031 68.0793 138.814 67.179 138.814C66.2057 138.814 65.3298 139.031 64.5512 139.466C63.7726 139.901 63.1521 140.518 62.6898 141.315C62.2519 142.113 62.0329 143.08 62.0329 144.215C62.0329 145.351 62.2519 146.318 62.6898 147.116C63.1521 147.913 63.7726 148.529 64.5512 148.964C65.3298 149.399 66.2057 149.617 67.179 149.617C68.0793 149.617 68.9065 149.412 69.6608 149.001C70.4394 148.566 71.0842 147.877 71.5952 146.934L76.0114 149.327C75.2814 150.898 74.15 152.118 72.6171 152.988C71.0842 153.834 69.2837 154.257 67.2155 154.257Z" fill="white"/>
<path d="M83.6327 153.967V137.799L84.9101 139.104H76.9902V134.464H95.9323V139.104H88.0124L89.2898 137.799V153.967H83.6327Z" fill="white"/>
<path d="M110.537 154.257C108.882 154.257 107.435 153.895 106.194 153.17C104.953 152.445 103.98 151.345 103.274 149.871C102.593 148.372 102.252 146.487 102.252 144.215C102.252 141.919 102.581 140.034 103.237 138.56C103.894 137.086 104.843 135.986 106.084 135.261C107.325 134.536 108.809 134.174 110.537 134.174C112.386 134.174 114.041 134.597 115.501 135.442C116.985 136.264 118.153 137.424 119.004 138.923C119.88 140.421 120.318 142.185 120.318 144.215C120.318 146.27 119.88 148.046 119.004 149.544C118.153 151.043 116.985 152.203 115.501 153.025C114.041 153.846 112.386 154.257 110.537 154.257ZM98.9308 161V134.464H104.369V138.451L104.259 144.252L104.624 150.016V161H98.9308ZM109.552 149.617C110.5 149.617 111.34 149.399 112.07 148.964C112.824 148.529 113.42 147.913 113.858 147.116C114.321 146.294 114.552 145.327 114.552 144.215C114.552 143.08 114.321 142.113 113.858 141.315C113.42 140.518 112.824 139.901 112.07 139.466C111.34 139.031 110.5 138.814 109.552 138.814C108.603 138.814 107.751 139.031 106.997 139.466C106.242 139.901 105.646 140.518 105.208 141.315C104.77 142.113 104.551 143.08 104.551 144.215C104.551 145.327 104.77 146.294 105.208 147.116C105.646 147.913 106.242 148.529 106.997 148.964C107.751 149.399 108.603 149.617 109.552 149.617Z" fill="white"/>
<path d="M133.506 154.257C131.414 154.257 129.552 153.822 127.922 152.952C126.316 152.082 125.039 150.898 124.09 149.399C123.165 147.877 122.703 146.149 122.703 144.215C122.703 142.258 123.165 140.53 124.09 139.031C125.039 137.509 126.316 136.325 127.922 135.479C129.552 134.609 131.414 134.174 133.506 134.174C135.574 134.174 137.423 134.609 139.054 135.479C140.684 136.325 141.961 137.497 142.886 138.995C143.81 140.494 144.273 142.234 144.273 144.215C144.273 146.149 143.81 147.877 142.886 149.399C141.961 150.898 140.684 152.082 139.054 152.952C137.423 153.822 135.574 154.257 133.506 154.257ZM133.506 149.617C134.455 149.617 135.307 149.399 136.061 148.964C136.815 148.529 137.411 147.913 137.849 147.116C138.287 146.294 138.506 145.327 138.506 144.215C138.506 143.08 138.287 142.113 137.849 141.315C137.411 140.518 136.815 139.901 136.061 139.466C135.307 139.031 134.455 138.814 133.506 138.814C132.557 138.814 131.705 139.031 130.951 139.466C130.197 139.901 129.589 140.518 129.126 141.315C128.688 142.113 128.469 143.08 128.469 144.215C128.469 145.327 128.688 146.294 129.126 147.116C129.589 147.913 130.197 148.529 130.951 148.964C131.705 149.399 132.557 149.617 133.506 149.617Z" fill="white"/>
<path d="M75.9723 0.0173204C79.277 0.0173204 82.5816 0.0173204 85.8863 0.0173204C88.0134 0.0173204 89.8367 1.49822 90.4065 3.60265C91.2042 6.4865 89.191 9.52623 86.2661 9.838C84.7088 9.99388 83.1134 9.87697 81.556 9.91594C80.7584 9.91594 80.7204 9.95491 80.7204 10.7733C80.7204 12.1763 80.7584 13.5792 80.7204 14.9822C80.7204 15.5278 80.9103 15.7226 81.4041 15.7616C87.1778 16.502 92.5716 18.3726 97.5476 21.4513C108.525 28.2712 115.173 38.2088 117.414 51.1082C119.617 63.8127 116.768 75.4651 109.019 85.6365C102.03 94.8336 92.7995 100.29 81.556 101.965C71.1862 103.524 61.5001 101.342 52.6117 95.652C51.662 95.0285 50.7124 94.4049 49.8388 93.6645C47.8256 91.9498 47.5217 88.988 49.0791 86.8835C50.5985 84.8181 53.4853 84.3115 55.6125 85.7924C56.714 86.5718 57.7396 87.4291 58.8791 88.1696C64.6148 91.8328 70.8443 93.5865 77.5676 93.3527C85.3545 93.0799 92.1918 90.313 98.0794 85.0909C104.385 79.4791 108.145 72.3863 109.171 63.8907C110.386 53.8752 107.766 44.9118 101.308 37.2735C96.2941 31.35 89.9887 27.4529 82.4297 25.972C72.8195 24.1014 64.0451 26.1668 56.1442 32.1294C54.397 33.4544 52.5357 33.8051 50.5985 32.7139C47.5597 31.0382 47.2558 26.6734 49.9907 24.4911C56.0303 19.6976 62.9055 16.7748 70.4645 15.7616C71.1482 15.6836 71.1862 15.6447 71.1862 14.9432C71.1862 13.5013 71.1862 12.0983 71.1482 10.6564C71.1482 9.95491 71.0723 9.91594 70.3885 9.91594C69.0211 9.91594 67.6916 9.91594 66.3242 9.91594C63.7412 9.87697 61.766 8.20122 61.3861 5.82399C60.8923 2.8622 63.0955 0.0562914 66.0203 0.0173204C69.325 -0.0216505 72.6676 0.0173204 75.9723 0.0173204Z" fill="white"/>
<path d="M76.008 70.0455C70.8464 70.0455 66.717 65.7471 66.9156 60.6129C67.1141 55.439 71.6008 51.4192 76.7624 51.857C77.1992 51.8968 77.5168 51.7774 77.8345 51.5386C81.9241 48.2352 86.0137 44.9318 90.1033 41.6683C92.1283 40.0365 94.9473 40.7131 95.9003 43.0613C96.4958 44.5338 96.0988 45.887 95.1459 47.081C92.0489 50.9416 88.9519 54.842 85.8152 58.7025C85.299 59.3393 85.1005 59.9363 85.1402 60.7721C85.299 65.7869 81.0903 70.0455 76.008 70.0455Z" fill="white"/>
<path d="M36.0185 48.0575C30.6545 48.0575 25.2905 48.0575 19.9265 48.0575C17.7268 48.0575 16.0289 46.7543 15.7202 44.8495C15.4114 42.9782 16.9936 41.1069 19.1933 40.8396C19.6563 40.7727 20.1194 40.7727 20.5825 40.7727C30.9246 40.7727 41.2281 40.7727 51.5702 40.7727C53.0367 40.7727 54.3487 41.0066 55.3521 42.0091C56.5098 43.1787 56.7799 44.5154 56.0467 45.9189C55.3135 47.3223 54.04 48.0575 52.2649 48.0909C46.8237 48.0909 41.4211 48.0575 36.0185 48.0575Z" fill="white"/>
<path d="M40.207 64.8086C36.2801 64.8086 32.3533 64.8086 28.4264 64.8086C27.2827 64.8086 26.2533 64.5035 25.4527 63.7405C24.1564 62.5198 23.7371 61.0321 24.2708 59.3537C24.8045 57.7134 25.9864 56.7597 27.702 56.4927C28.007 56.4545 28.312 56.4545 28.617 56.4545C36.3564 56.4545 44.0957 56.4545 51.835 56.4545C53.1313 56.4545 54.3132 56.7597 55.2282 57.7134C56.4481 59.0103 56.7913 60.5362 56.105 62.1765C55.4569 63.8168 54.1607 64.7323 52.4069 64.7705C48.3276 64.8468 44.2863 64.8086 40.207 64.8086Z" fill="white"/>
<path d="M42.8351 70.0931C45.9643 70.0931 49.0936 70.0455 52.2229 70.0931C54.3091 70.1407 56.0743 71.9987 56.3953 74.4284C56.8366 77.668 54.7504 80.4788 51.8618 80.4788C48.3314 80.5265 44.8009 80.4788 41.3105 80.4788C38.8232 80.4788 36.2957 80.4788 33.8083 80.4788C31.6419 80.4312 29.9569 78.9543 29.4353 76.6676C28.673 73.3803 30.679 70.0931 33.5275 70.0455C36.6166 70.0455 39.7459 70.0931 42.8351 70.0931Z" fill="white"/>
<path d="M259.103 45.8322C260.029 45.6662 260.989 45.5002 261.915 45.3342C264.041 44.9026 266.133 44.471 268.26 44.0394C268.603 43.973 268.705 43.8402 268.774 43.5414C269.186 41.8481 269.631 40.1549 270.112 38.4617C270.214 38.1297 270.112 38.0301 269.872 37.8641C267.677 36.3368 265.447 34.8096 263.253 33.2492C263.184 33.1828 263.081 33.1164 262.978 33.05C264.796 29.5639 266.613 26.1111 268.465 22.5918C269.048 22.7578 269.631 22.957 270.18 23.123C272.478 23.8535 274.81 24.5839 277.108 25.3475C277.416 25.4471 277.588 25.4139 277.862 25.1483C279.097 23.8535 280.4 22.5918 281.669 21.3634C281.909 21.131 281.978 20.965 281.84 20.633C280.709 18.2094 279.577 15.7857 278.411 13.3289C281.806 11.2041 285.201 9.07924 288.597 6.92121C289.763 8.18283 290.894 9.37804 291.992 10.6065C292.815 11.5029 293.672 12.3993 294.495 13.3289C294.701 13.5613 294.873 13.6277 295.215 13.5281C296.999 13.0301 298.748 12.5653 300.565 12.1669C301.046 12.0673 301.183 11.8681 301.217 11.4033C301.457 8.97964 301.732 6.5228 301.937 4.09917C301.972 3.70076 302.212 3.70076 302.486 3.66756C304.749 3.56796 307.047 3.43516 309.311 3.33556C310.717 3.26915 312.123 3.20275 313.529 3.13635C313.7 3.13635 313.872 3.13635 314.078 3.13635C314.386 4.46437 314.661 5.79239 314.935 7.15361C315.244 8.64763 315.552 10.1085 315.895 11.6025C315.93 11.7685 316.101 12.0009 316.238 12.0341C318.262 12.5321 320.285 12.9969 322.377 13.4949C323.955 11.3701 325.635 9.11244 327.35 6.82161C330.951 8.58123 334.552 10.3741 338.153 12.1337C337.638 13.6609 337.124 15.1217 336.644 16.6158C336.198 17.9438 335.752 19.2386 335.341 20.5666C335.306 20.7326 335.341 20.9982 335.443 21.0978C336.918 22.459 338.393 23.7871 339.97 25.2147C342.371 24.1523 345.046 22.9902 347.755 21.8282C349.95 25.1151 352.145 28.3687 354.374 31.6888C354.203 31.8216 354.066 31.9876 353.894 32.1204C351.734 33.9796 349.607 35.8388 347.447 37.6649C347.172 37.8973 347.138 38.0965 347.241 38.4285C347.721 40.0553 348.133 41.6821 348.544 43.3089C348.647 43.7074 348.818 43.8402 349.23 43.8734C352.008 44.1058 354.82 44.4046 357.667 44.6702C357.872 48.5878 358.112 52.4723 358.318 56.3899C357.701 56.5227 357.084 56.6555 356.501 56.7883C354.134 57.2531 351.768 57.7512 349.401 58.216C348.887 58.3156 348.75 58.548 348.647 58.9796C348.167 60.8388 347.618 62.7312 347.069 64.5905C347.035 64.6901 347.001 64.7565 346.932 64.8893C345.458 63.4948 344.017 62.1336 342.543 60.8056C340.725 59.1124 338.942 57.4192 337.158 55.7259C336.987 55.5931 336.884 55.2943 336.918 55.0951C337.947 46.8946 335.855 39.5241 330.368 33.1496C325.635 27.6383 319.496 24.3515 312.123 23.4883C299.125 21.961 286.95 29.0659 282.183 40.9517C276.525 55.1615 283.418 71.297 298.165 77.1734C303.069 79.0991 308.11 79.5971 313.323 78.8003C313.529 78.7671 313.803 78.8667 313.941 78.9995C316.993 82.0207 320.011 85.042 323.029 88.0632C323.132 88.1628 323.2 88.2624 323.406 88.4948C321.314 89.0592 319.359 89.6236 317.37 90.1548C316.238 90.4536 316.238 90.4204 316.101 91.5825C315.861 93.9397 315.621 96.2637 315.381 98.6874C311.334 98.8866 307.322 99.119 303.275 99.3182C303.035 98.123 302.76 96.9941 302.52 95.8321C302.177 94.1721 301.8 92.5121 301.457 90.8188C301.389 90.5532 301.286 90.4204 300.977 90.3208C299.159 89.856 297.342 89.3912 295.558 88.8932C295.215 88.7936 295.01 88.8268 294.804 89.1256C293.329 91.1177 291.855 93.1097 290.346 95.1349C290.243 95.2677 290.14 95.4005 290.003 95.5665C286.402 93.8069 282.835 92.0473 279.2 90.2544C279.611 89.0592 280.023 87.864 280.4 86.6688C280.949 85.0752 281.463 83.5147 282.012 81.9211C282.115 81.5891 282.081 81.3899 281.806 81.1243C280.503 79.8959 279.2 78.6343 277.931 77.3727C277.691 77.107 277.519 77.1402 277.211 77.273C274.81 78.3355 272.409 79.3647 270.043 80.3939C269.906 80.4603 269.769 80.4935 269.563 80.5931C267.368 77.3062 265.173 74.0526 262.944 70.7658C263.561 70.2013 264.179 69.6701 264.796 69.1389C266.476 67.6781 268.157 66.2173 269.872 64.7565C270.077 64.5573 270.146 64.4245 270.077 64.1257C269.597 62.4324 269.151 60.7392 268.705 59.046C268.637 58.7472 268.534 58.6144 268.225 58.5812C265.482 58.3156 262.738 58.05 260.029 57.7844C259.754 57.7512 259.652 57.6848 259.617 57.386C259.446 54.1987 259.274 50.9783 259.103 47.791C259.103 47.4922 259.034 47.2266 259 46.961C259.103 46.4962 259.103 46.1642 259.103 45.8322Z" fill="white"/>
<path d="M289.755 41.7428C289.925 41.9157 290.062 42.0195 290.164 42.1578C293.54 45.6165 296.95 49.0405 300.326 52.4992C301.621 53.8135 302.883 53.8135 304.179 52.4992C306.566 50.0781 308.918 47.6571 311.305 45.2706C312.021 44.5443 312.328 43.7142 311.987 42.7458C311.851 42.3308 311.544 41.9157 311.237 41.5698C307.861 38.1112 304.451 34.6525 301.042 31.1939C300.905 31.0555 300.735 30.9518 300.598 30.8134C300.598 30.7442 300.632 30.6751 300.632 30.6405C301.724 30.3292 302.815 29.9142 303.94 29.7066C314.101 27.5277 324.126 33.7533 326.888 43.9217C327.741 47.0345 327.809 50.1473 327.161 53.2947C327.093 53.6751 327.161 53.9173 327.434 54.1939C334.799 61.4225 342.164 68.6511 349.53 75.9143C352.496 78.8196 355.463 81.7249 358.395 84.6301C360.134 86.3249 360.816 88.3655 360.168 90.752C358.429 97.0467 354.406 100.99 348.098 102.338C346.154 102.754 344.415 102.027 343.051 100.609C336.879 94.176 330.741 87.7429 324.604 81.3098C320.682 77.194 316.727 73.0782 312.806 68.9624C312.533 68.6857 312.294 68.6166 311.953 68.7203C301.451 71.0376 290.846 64.0165 288.698 53.3293C287.948 49.6285 288.186 45.9969 289.448 42.4345C289.516 42.2962 289.55 42.1232 289.619 41.9849C289.687 41.9157 289.721 41.8465 289.755 41.7428Z" fill="white"/>
<path d="M239.169 128.79H244.964V153.848H239.169V128.79ZM227.795 153.848H222V128.79H227.795V153.848ZM239.599 143.574H227.365V138.67H239.599V143.574Z" fill="white"/>
<path d="M262.326 153.848V150.089L261.968 149.266V142.536C261.968 141.343 261.599 140.412 260.859 139.744C260.144 139.075 259.035 138.741 257.533 138.741C256.508 138.741 255.494 138.908 254.492 139.242C253.515 139.553 252.68 139.982 251.989 140.531L249.986 136.629C251.035 135.89 252.299 135.317 253.777 134.911C255.256 134.505 256.758 134.303 258.284 134.303C261.217 134.303 263.495 134.995 265.116 136.379C266.738 137.763 267.548 139.923 267.548 142.858V153.848H262.326ZM256.46 154.134C254.958 154.134 253.67 153.883 252.597 153.382C251.524 152.857 250.701 152.153 250.129 151.27C249.556 150.387 249.27 149.397 249.27 148.299C249.27 147.154 249.544 146.151 250.093 145.292C250.665 144.433 251.559 143.765 252.776 143.288C253.992 142.786 255.578 142.536 257.533 142.536H262.648V145.793H258.141C256.829 145.793 255.923 146.008 255.423 146.438C254.946 146.867 254.707 147.404 254.707 148.048C254.707 148.764 254.981 149.337 255.53 149.767C256.102 150.172 256.877 150.375 257.855 150.375C258.785 150.375 259.619 150.161 260.359 149.731C261.098 149.278 261.634 148.621 261.968 147.762L262.827 150.339C262.421 151.58 261.682 152.523 260.609 153.167C259.536 153.812 258.153 154.134 256.46 154.134Z" fill="white"/>
<path d="M285.63 151.342V139.171H279.335L279.228 141.641C279.18 142.667 279.12 143.645 279.049 144.576C278.977 145.507 278.834 146.354 278.62 147.118C278.429 147.858 278.143 148.49 277.761 149.015C277.38 149.516 276.867 149.862 276.223 150.053L270.715 149.266C271.406 149.266 271.967 149.063 272.396 148.657C272.825 148.227 273.159 147.643 273.397 146.903C273.636 146.139 273.815 145.28 273.934 144.326C274.053 143.347 274.137 142.321 274.184 141.247L274.435 134.589H291.211V151.342H285.63ZM270.071 158V149.266H293.965V158H288.778V153.848H275.257V158H270.071Z" fill="white"/>
<path d="M306.884 154.134C304.69 154.134 302.758 153.704 301.089 152.845C299.444 151.986 298.168 150.817 297.262 149.337C296.356 147.834 295.903 146.127 295.903 144.218C295.903 142.285 296.344 140.579 297.226 139.099C298.132 137.596 299.36 136.426 300.91 135.591C302.46 134.732 304.213 134.303 306.168 134.303C308.052 134.303 309.745 134.708 311.248 135.52C312.774 136.307 313.978 137.453 314.86 138.956C315.743 140.436 316.184 142.214 316.184 144.29C316.184 144.505 316.172 144.755 316.148 145.042C316.124 145.304 316.1 145.555 316.077 145.793H300.445V142.536H313.143L310.997 143.502C310.997 142.5 310.795 141.629 310.389 140.889C309.984 140.149 309.423 139.577 308.708 139.171C307.993 138.741 307.158 138.527 306.204 138.527C305.25 138.527 304.404 138.741 303.665 139.171C302.949 139.577 302.389 140.161 301.983 140.925C301.578 141.665 301.375 142.548 301.375 143.574V144.433C301.375 145.483 301.602 146.414 302.055 147.225C302.532 148.013 303.188 148.621 304.022 149.051C304.881 149.457 305.882 149.659 307.027 149.659C308.052 149.659 308.947 149.504 309.71 149.194C310.497 148.884 311.212 148.418 311.856 147.798L314.825 151.02C313.942 152.022 312.833 152.798 311.498 153.346C310.163 153.871 308.625 154.134 306.884 154.134ZM309.674 131.94C308.982 131.94 308.398 131.713 307.921 131.26C307.444 130.806 307.206 130.21 307.206 129.47C307.206 128.73 307.444 128.134 307.921 127.68C308.398 127.227 308.982 127 309.674 127C310.365 127 310.95 127.227 311.427 127.68C311.927 128.134 312.178 128.73 312.178 129.47C312.178 130.21 311.927 130.806 311.427 131.26C310.95 131.713 310.365 131.94 309.674 131.94ZM302.448 131.94C301.757 131.94 301.161 131.713 300.66 131.26C300.183 130.806 299.944 130.21 299.944 129.47C299.944 128.73 300.183 128.134 300.66 127.68C301.161 127.227 301.757 127 302.448 127C303.14 127 303.724 127.227 304.201 127.68C304.678 128.134 304.916 128.73 304.916 129.47C304.916 130.21 304.678 130.806 304.201 131.26C303.724 131.713 303.14 131.94 302.448 131.94Z" fill="white"/>
<path d="M343.08 153.848L337.965 144.719L342.472 142.035L349.697 153.848H343.08ZM334.674 146.545V142.07H341.363V146.545H334.674ZM343.044 144.863L337.786 144.29L343.331 134.589H349.232L343.044 144.863ZM324.051 153.848H317.469L324.659 142.035L329.166 144.719L324.051 153.848ZM336.32 153.848H330.811V134.589H336.32V153.848ZM332.457 146.545H325.803V142.07H332.457V146.545ZM324.086 144.863L317.898 134.589H323.8L329.309 144.29L324.086 144.863Z" fill="white"/>
<path d="M352.598 153.848V134.589H358.142V142.106H366.512V134.589H372.092V153.848H366.512V146.652H358.142V153.848H352.598Z" fill="white"/>
<path d="M386.448 154.134C384.397 154.134 382.573 153.704 380.975 152.845C379.401 151.986 378.149 150.817 377.219 149.337C376.313 147.834 375.86 146.127 375.86 144.218C375.86 142.285 376.313 140.579 377.219 139.099C378.149 137.596 379.401 136.426 380.975 135.591C382.573 134.732 384.397 134.303 386.448 134.303C388.475 134.303 390.287 134.732 391.885 135.591C393.483 136.426 394.735 137.584 395.641 139.064C396.547 140.543 397 142.261 397 144.218C397 146.127 396.547 147.834 395.641 149.337C394.735 150.817 393.483 151.986 391.885 152.845C390.287 153.704 388.475 154.134 386.448 154.134ZM386.448 149.552C387.378 149.552 388.213 149.337 388.952 148.908C389.691 148.478 390.275 147.87 390.705 147.082C391.134 146.271 391.348 145.316 391.348 144.218C391.348 143.097 391.134 142.142 390.705 141.355C390.275 140.567 389.691 139.958 388.952 139.529C388.213 139.099 387.378 138.885 386.448 138.885C385.518 138.885 384.683 139.099 383.944 139.529C383.205 139.958 382.609 140.567 382.156 141.355C381.726 142.142 381.512 143.097 381.512 144.218C381.512 145.316 381.726 146.271 382.156 147.082C382.609 147.87 383.205 148.478 383.944 148.908C384.683 149.337 385.518 149.552 386.448 149.552Z" fill="white"/>
</svg>
